<svg xmlns="http://www.w3.org/2000/svg" viewBox="150 100 500 480" width="100%" height="100%">
  <defs>
    <linearGradient id="bg" x1="0%" y1="0%" x2="100%" y2="100%">
      <stop offset="0%" stop-color="#0F172A"/>
      <stop offset="100%" stop-color="#020617"/>
    </linearGradient>

    <linearGradient id="gradK" x1="0%" y1="0%" x2="100%" y2="100%">
      <stop offset="0%" stop-color="#818CF8"/>
      <stop offset="100%" stop-color="#F43F5E"/>
    </linearGradient>

    <linearGradient id="gradY" x1="0%" y1="100%" x2="100%" y2="0%">
      <stop offset="0%" stop-color="#06B6D4"/>
      <stop offset="100%" stop-color="#3B82F6"/>
    </linearGradient>
  </defs>

  <circle cx="400" cy="340" r="235" fill="url(#bg)" stroke="#FFFFFF" stroke-width="8"/>

  <g transform="translate(400, 250) scale(0.75)">
    
    <path d="M -100 -80 L -100 80 M -100 0 L -10 -70 M -100 0 L -10 70" 
          fill="none" stroke="url(#gradK)" stroke-width="32" stroke-linecap="round" stroke-linejoin="round" />

    <path d="M 100 -30 L 100 80 M 60 -70 L 100 -30 M 140 -70 L 100 -30" 
          fill="none" stroke="url(#gradY)" stroke-width="32" stroke-linecap="round" stroke-linejoin="round" />

    <path d="M -150 130 C -80 130, -30 150, 0 170 C 30 150, 80 130, 150 130" fill="none" stroke="#94A3B8" stroke-width="8" stroke-linecap="round" opacity="0.6"/>
    <path d="M -150 150 C -80 150, -30 170, 0 190 C 30 170, 80 150, 150 150" fill="none" stroke="#94A3B8" stroke-width="8" stroke-linecap="round" opacity="0.2"/>
  </g>

  <text x="400" y="450" font-family="'Segoe UI', Roboto, Helvetica, sans-serif" font-weight="800" font-size="64" fill="#FFFFFF" text-anchor="middle" letter-spacing="2">
    Kei<tspan fill="#06B6D4">Yomi</tspan>
  </text>
  
  <text x="400" y="490" font-family="'Segoe UI', Roboto, Helvetica, sans-serif" font-weight="600" font-size="16" fill="#94A3B8" text-anchor="middle" letter-spacing="8">
    
  </text>
</svg>